<?xml version="1.0" encoding="UTF-8"?>
<svg id="Layer_1" xmlns="http://www.w3.org/2000/svg" xmlns:xlink="http://www.w3.org/1999/xlink" version="1.1" viewBox="0 0 1024 1024">
  <!-- Generator: Adobe Illustrator 29.4.0, SVG Export Plug-In . SVG Version: 2.1.0 Build 152)  -->
  <defs>
    <style>
      .st0 {
        fill: #fdf9fc;
      }

      .st1 {
        fill: url(#linear-gradient2);
      }

      .st2 {
        fill: url(#linear-gradient1);
      }

      .st3 {
        fill: url(#linear-gradient);
      }

      .st4 {
        fill: #aae4fc;
      }

      .st5 {
        fill: #fdc0f1;
      }
    </style>
    <linearGradient id="linear-gradient" x1="590.8" y1="705.9" x2="782.4" y2="705.9" gradientUnits="userSpaceOnUse">
      <stop offset=".3" stop-color="#f1b6fc"/>
      <stop offset="1" stop-color="#cdbefd"/>
    </linearGradient>
    <linearGradient id="linear-gradient1" x1="778" y1="660.1" x2="843" y2="652.6" gradientTransform="translate(0 1024) scale(1 -1)" gradientUnits="userSpaceOnUse">
      <stop offset="0" stop-color="#f1b6fc"/>
      <stop offset="1" stop-color="#cdbefd"/>
    </linearGradient>
    <linearGradient id="linear-gradient2" x1="845.9" y1="663.4" x2="949" y2="649.6" gradientTransform="translate(0 1024) scale(1 -1)" gradientUnits="userSpaceOnUse">
      <stop offset="0" stop-color="#c5cafd"/>
      <stop offset="1" stop-color="#a8dbfd"/>
    </linearGradient>
  </defs>
  <path class="st5" d="M272.3,476.1c6.2-.5,13.7.6,19.9,1.5,19.8,3,42.6,11.2,55,29,8.8,12.7,12,28.5,9.9,44-1.3,9.7-5.4,18.9-13,24.6-.4.3-.8.6-1.2.9-.4.3-.8.5-1.3.8-.4.3-.9.5-1.3.7-.4.2-.9.4-1.3.7-.4.2-.9.4-1.3.6-.5.2-.9.4-1.4.5-.5.2-.9.3-1.4.4-.5.1-.9.3-1.4.4-.5.1-.9.2-1.4.3-.5,0-1,.2-1.4.2-.5,0-1,.1-1.4.1s-1,0-1.5,0c-.5,0-1,0-1.5,0s-1,0-1.4,0c-.5,0-1,0-1.4-.2-.5,0-1-.1-1.4-.2-24.8-5-15-35.4-26-51.2-2.5-3.6-5.9-5.8-10.1-6.3-7.4-1-15.4,2-21.1,6.8-5.1,4.3-9.1,10.7-9.8,17.7-2.7,27.3,36.7,45.3,53.9,58.1,8.8,6.5,16.9,13.9,23.8,22.7,15.7,19.8,22.9,43,20.8,68.9-1.8,22.4-10.7,41.3-26.9,55.6-25.2,22.3-61.7,27.8-93.4,24.6-23.3-1.9-46.4-9.1-63.6-26.9-10.5-10.9-17.6-25.1-17.8-40.9-.2-12.7,3.7-24.8,12.2-33.9.6-.6,1.2-1.2,1.8-1.8.6-.6,1.2-1.2,1.9-1.7.6-.6,1.3-1.1,2-1.6.7-.5,1.3-1,2-1.5.7-.5,1.4-1,2.1-1.4.7-.4,1.4-.9,2.2-1.3.7-.4,1.5-.8,2.2-1.2.7-.4,1.5-.7,2.3-1.1.8-.3,1.5-.6,2.3-.9.8-.3,1.6-.6,2.4-.8.8-.2,1.6-.5,2.4-.7.8-.2,1.6-.4,2.4-.5.8-.2,1.6-.3,2.4-.4.8-.1,1.6-.2,2.5-.3.8,0,1.6-.1,2.5-.1s1.6,0,2.5,0c31.8.8,16.1,39.2,32.3,56.2,6.2,6.5,16,7.9,24.3,7.5,7-.3,13.9-4.3,18.4-10.1.5-.7,1-1.4,1.5-2.1.5-.7.9-1.5,1.3-2.2.4-.8.7-1.5,1.1-2.3s.6-1.6.8-2.4.4-1.7.6-2.5c.2-.9.3-1.7.4-2.6,0-.9.1-1.7.1-2.6,0-.9,0-1.7-.1-2.6-.6-5.5-2.8-11.2-6.3-15.3-8.9-10.2-23.1-17.3-34-25-10.2-7.3-20-15.1-29.4-23.4-16.7-14.9-29.4-32.5-31.3-56.3-1.9-24.2,2.7-45.1,17.6-63.8,20-25.1,46.1-32.1,75.5-34.6Z"/>
  <path class="st3" d="M781.8,624.8c.4-11.2-3.1-24-8.2-33.7-7.1-13.2-18.9-24.5-32.9-28.3-20.5-5.6-34.2,7.4-50.6,17.9-1.3-5-2.4-9.7-6.7-12.8-6.3-4.5-14.8-2.7-21.8-1.3-16.8,3.5-28.6,10.6-38.2,25.9-1.4,5.8-4.2,11.6-.9,17.4,1.3,2.3,3.1,4.4,4.7,6.5.1.2.3.4.4.5,10.9,14.9,3.6,60.3,1.3,79.4-2.5,20.5-7.8,78.9-15.3,94.3-5.6,11.6-25.3,25.4-22.3,39.2.6,2.7,1.6,5.3,3.1,7.5,5.6,8.2,16.2,10.4,25.1,11.6,17.8,2.4,50.3,2.2,65-10,2.6-2.2,4.6-4.7,5.1-8.3.4-2.8-.9-6-2.3-8.3-2.2-3.7-5.3-6.6-7.7-10.3-7.9-12.4-10.8-27.5-9.5-42.3.3-3.9.3-9.3,1.7-12.8.7.9.3.2,1,1.5,3.6,6.5,11.8,10.9,18.6,12.4,15.7,3.5,33-2.2,46-11.6,12.6-9.1,30-30.7,32.8-47,0-.3.1-.7.2-1,9.6-19.9,13.9-63.7,11.6-86.6ZM724.7,684.4c-4.6,12.3-10.7,19.8-22.1,25.1-3.9,1.2-8,2.3-11.9.3-4.1-2.1-6.5-6.3-7.7-10.8-3.8-14.2,1.3-65.2,8.3-77.7,4.1-7.4,10.8-11.8,18.4-14,2.3,0,4.6.1,6.9,1,5.1,1.9,8.7,6.3,10.8,11.4,6.7,16.1,3.2,48.6-2.8,64.8Z"/>
  <path class="st5" d="M699.8,200.3c9.4-1,19.1-1,28.3,1.2,14.3,3.3,27.8,11.1,35.7,24.7,6.9,11.8,7.7,26.2,4.5,39.4-2,8.4-6,18-13.4,22.4-3.7,2.2-7.9,2.6-11.9,1.2-15.7-5.4-10.4-28.2-16.5-41-3.5-7.2-8.1-9.5-15-11.7-5.2,1.4-9.7,3.1-14.3,6.1-15.2,10-25.1,29.1-29.1,47.4-5.6,25.7-8.7,70.4,5.3,93.7,4.8,7.9,11.6,13.3,20.3,15.2,5,1.1,11.7,1.2,16-2.2,4.3-3.4,6.6-10.1,7.4-15.5,4.1-28.2-8.6-19.9-19-35.5-2.2-3.2-3.6-7.2-2.9-11.2.8-4.6,4.3-8,7.9-10.3,16.3-10.6,48.8-3.8,66.8,1.1,2.3.9,4.8,1.7,6.9,3,2.4,1.5,4.3,4,4.9,7,2.3,11.2-9.2,16.7-13.6,25.2-8,15.6-6.4,39.9-2.6,56.5,1.6,6.8,4.1,13.2,5.9,19.9-.7,1.7-1.3,3.5-2.2,5.1-3.8,7.4-10.8,12.5-18.3,14.7-4.8,1.4-10.3,1.6-14.6-1.3-5.8-3.8-6.8-10-8.3-16.6-10.2,8.1-19.9,14.2-32.6,16.8-17.8,3.5-34.7-.9-49.4-12-22.5-17-33.9-46.2-38.4-74.3-6.8-42.8,1.9-88.9,25.6-124.4,1-1.5,2-2.9,3-4.3,1-1.4,2.1-2.8,3.2-4.1,1.1-1.4,2.2-2.7,3.4-4,1.2-1.3,2.4-2.6,3.6-3.8,1.2-1.2,2.5-2.4,3.8-3.6,1.3-1.2,2.6-2.3,3.9-3.4,1.3-1.1,2.7-2.2,4.1-3.2,1.4-1,2.8-2,4.2-3,1.4-1,2.9-1.9,4.3-2.7,1.5-.9,3-1.7,4.5-2.5,1.5-.8,3-1.6,4.6-2.3,1.5-.7,3.1-1.4,4.7-2,1.6-.6,3.2-1.2,4.8-1.8,1.6-.6,3.2-1.1,4.8-1.5,1.6-.5,3.3-.9,4.9-1.3,1.6-.4,3.3-.7,4.9-1Z"/>
  <path class="st5" d="M532.1,682c1.1,6.2,2.4,11.5,5.7,16.9,4.4,7.2,10.9,12.1,18.8,13.7,12.9,2.7,22.9-1.7,33.4-9.1,4.3-3,11.2-7.8,16.6-6,2,.7,3.3,1.7,4.3,3.6,3.2,5.9,2.4,14.5.7,20.8-4.9,18.3-20.3,32-35.5,40.5-16.4,9.2-35.2,12.6-53.1,6.4-17.4-6-32-20.4-40.1-37.8-13.3-28.7-12.1-65.5-2.4-95.2,8.7-26.8,25.6-52.2,50-64.8,16.1-8.3,37.7-10.3,54.7-3.9,14.7,5.6,22.4,16.7,28.7,31.2,1.1,4.5,2.3,9.1,2.3,13.9-1.1,9.5-1.4,18.3-4.9,27.3-8.6,22.4-29.5,33.7-50.9,37-9.2,1.4-18.6,1-27.3,4.9-.3.1-.6.3-.9.4ZM549.4,647.9c9.7-3,17.9-6.9,22.9-17,2.7-5.5,3.6-12.4,1.8-18.3-1.3-4.1-4-7.2-7.6-8.9-3.3-1.6-6.8-2-10.3-1.9-9.2,2.3-15.3,8.4-20.2,16.9-3.3,5.8-8.4,17-7,23.7.4,2.1,1.3,4,3,5.2,3.8,2.7,13,1.3,17.4.4Z"/>
  <path class="st4" d="M846.7,562.5c2.1-.5,4.5-.5,6.6-.6,18-1,40.2,1.8,54.1,15.6,6.6,6.6,9.6,15.3,9.6,24.9,0,6.9-2.2,17.6-7.1,22.4-3.2,3.2-8.7,5.6-13.1,5.3-12-.8-12.6-19.2-19.5-26.8-1.8-2-4-3.4-6.7-3.3-3.8,0-7.9,2.6-10.4,5.5-2.4,2.7-3.2,5.5-3.1,9.2.5,18.4,33.6,34.7,45,46.7,10.9,11.4,16.1,27.7,16.2,43.9,0,16.7-5.1,34.4-16.4,46.3-16.2,17.1-38.1,22.3-60.2,22.3-11,0-22.6-2.6-32.5-7.6-11.8-5.9-22.8-17-27.1-30.4-3.5-10.8-2.7-23.4,2.2-33.5,3-6.2,7.7-12,14.1-14.1,6.4-2.1,12.3-.2,18.1,3.1,0,0,0,.2.1.2,5.6,8.9,5.7,20.4,13.4,28.1,3.9,3.9,10.1,6.4,15.5,5.9,3.9-.4,8-3,10.5-6.2,2.2-2.8,3.1-6.2,2.6-9.8-2.1-15.4-21-24-31.6-32-15-11.4-26.8-28.6-29.7-48.3-2.3-15.1,1.1-31.8,9.6-44.2,9.8-14.2,23.9-20.2,39.8-22.6Z"/>
  <path class="st5" d="M428.5,277.3c.1,0,.3,0,.4,0,13.3-1.1,24.7,1.5,35.6,10.1,15.7,12.3,24.1,32.3,27,52.5,4.4,30.7-4.6,61.4-21.7,86.1-11.9,17.2-24.3,24-43.8,27.1-.1,0-.3,0-.4,0-12.5,1.1-24.3-.8-34.5-9.1-15.2-12.4-25.5-34.6-27.9-54.7-3.4-28.3,2.9-61.3,19.4-84.1,12.4-17.1,26-25.2,46-28ZM431,404.5c12.3-8.4,19.1-22.6,22.1-37.5,3-14.6,2.8-36.4-5.3-49.3-2.4-3.8-6.3-7.2-10.7-7.8-1.6-.2-3.3-.1-4.9,0-11.3,7.5-16.3,26.5-19.2,39.6-3,13.4-6.5,37,.9,49.3,2.2,3.7,5.3,5.8,9.3,6.5,2.6.5,5.2,0,7.7-.8Z"/>
  <path class="st5" d="M434.7,507.8c2.2-.2,4.6-.5,6.8-.1,2.9.5,5.1,2.2,6.8,4.8,6.2,9.8-2.5,39.2-4.5,51.1,5.3.5,10.6.2,15.8.4,7.5.2,16.2.8,21.6,7.3,3.4,4.1,4.4,9.8,3.9,15.1-.1,1.1-.3,2.2-.6,3.3-.3,1.1-.6,2.2-1,3.2-.4,1-.9,2-1.4,3-.5,1-1.2,1.9-1.8,2.8-11.7,15.3-30.3,1.3-38.3,9.7-6.4,6.8-10.8,57.2-11,68-.1,9.5,0,26.1,6.9,33.1,6.9,7.1,15.4,3.3,23.7,3.6,2.5.1,4.7,1.1,6.2,3.3,2.5,3.4,2.8,7.7,2,11.8-3.1,16.1-16.9,30.6-29.4,39.2-3,1.7-5.8,3.1-9.1,4.2-12,4.1-26.7,2.9-37.8-3.6-29.9-17.5-20.2-58-16.1-86.6,2.2-15.1,4.1-30.1,5.3-45.3.5-6.2,1.9-15,0-21-1.4-4.6-13.6-2.9-17.8-5.4-3.4-2-5.3-6.2-6.3-10-1.7-6.2-1.9-11.8,1.3-17.4,6.7-12,28.4-25.4,38.9-36.6,9.2-9.8,15.5-22.5,24.9-31.9,3.2-3.2,6.8-4.5,10.9-5.7Z"/>
  <path class="st5" d="M552.2,228.9c.7,0,1.4,0,2,0,2.1,0,3.3.5,4.8,2.1,4.2,13.5-1.4,32-1.6,46.1v1.2c7,.4,23.1-2.5,28.4,3.1,2.9,3.1,3.4,9.2,3.4,13.5.2,23-24.4,10-31.3,17.8-6.4,7.3-9.9,52.5-9.9,64,0,6.8.6,14.8,5.6,19.7,5.4,5.4,12.4,3.5,19,3.7,2.8,0,5.9.8,7.7,3.3,2.5,3.6,1.8,9.4.8,13.4-3.6,14.8-16.3,28.8-28.4,36.3-2,.9-4.2,1.8-6.4,2.4-9.6,2.6-19.9,1.9-28.4-3.9-24.3-16.6-15.5-53.7-11.7-78.5,1.8-12.3,3.3-24.5,4.7-36.8.6-4.9,2.4-14.1.8-18.7-2-5.5-10.4-4.3-14.8-6.4-2.7-1.3-4.5-3.6-5.4-6.7-1.5-4.9-1-11.9,1.4-16.5,5.6-11,21.6-18.9,30.2-28,7.3-7.7,11.2-18.4,18.8-25.7,3.2-3.1,6.2-4.4,10.4-5.6Z"/>
  <path class="st2" d="M815.4,278.8c5.6-.6,11.4-1,16.5,1.8,17,8.9,2.1,49-.3,64.1-2.1,13.1-3.3,27.2-3.3,40.6,0,17.8,4.4,32.9,10,49.4-2.1,5.6-5.8,11.1-10.1,15-8.4,7.5-18.2,8.7-28.7,7.7-1.6-.2-3.1-.5-4.7-.9-6-1.5-11.9-4.4-15.2-10.2-.2-.3-.3-.6-.5-.9-2.3-4-1-8.9-.3-13.2,1.8-11.6,5.8-22.9,8.4-34.3,4.9-21.2,8.4-44.1,9.4-65.9-3.5-6.5-11.8-11.5-13.1-19-.8-4.4,1.1-8.7,3.3-12.2,6.5-10.5,17-19.2,28.6-21.8Z"/>
  <path class="st0" d="M65.6,436.7c1.1.9,1.4,1.1,1.8,2.6,1,3.9,1,9.1,1.5,13.2,2,18.3,2.3,46.1,11.7,61.4,11.2,18.2,34.1,22.1,52.5,26.2-14.2,3.6-28.2,6.2-40.2,15.7-17.4,13.7-19.2,32.4-21.3,53.7-1.1,11.2-2.2,22.5-3.8,33.7l-.5,1.4-1.2.4c-1.5-3.2-1.2-9.8-1.5-13.5-1.4-17.5-2.8-46.4-10.5-61.2-10.1-19.4-32-23.5-50.3-29,13.6-6.1,29.1-5.2,41.3-15.5,21.5-18.1,17.7-61.9,20.7-88.9Z"/>
  <path class="st5" d="M182.2,193c18.8-1.6,56.8-4.5,71.2,9.3,3.8,3.6,5.8,8.6,6,14,.4,15.5-10.8,25.7-17.2,38.3-6,11.9-13.9,37.7-6,49.9,2.1,1.6,4.1,2.2,6.7,2.5,8.2,1.1,39,1.2,47.1,0,3.6-.6,6.4-2.1,8.5-5.4,6.5-10.3,7-29.8,4.6-41.6-.3-1.6-.7-3.3-1.2-4.8-.5-1.6-1-3.2-1.6-4.7-.6-1.5-1.3-3-2-4.5-.7-1.5-1.6-2.9-2.4-4.3-6.1-9.5-18.4-18.5-10.5-31.1,6.3-10.1,22.3-14.7,32.9-16.6,20.1-3.5,44.1-3.2,64.3,0,6.5,1.6,12.7,3.5,17.9,8.3,3,2.7,5.1,6.2,5.2,10.5.4,17.9-22.2,31.4-32.7,42.6-4,4.3-6.5,10.6-8.8,16.1-2.4,5.7-4.6,11.5-6.4,17.5-1.9,5.9-3.5,12-4.8,18.1-4.9,23.4-8.9,67.5-4.1,90.8,1,4.6,2.5,9.3,4.5,13.5,4.4,8.9,14.7,19.7,12.9,30.4-.7,4.4-3.7,7.9-7.1,10.4-13.2,9.9-57.9,9.2-74.1,6.1-7.9-1.5-16.4-5-20.9-12.5-8.9-14.5,11.5-29.6,18.1-40.8,5.5-9.3,8.6-19.1,10.7-29.8,1.7-8.8,3.9-22.6-.9-30.5-1.7-1.2-3.1-1.6-5.2-1.7-8.2-.4-17.1.9-25.3,1-10.2.2-22.4-1.7-32.3.5-1.3.3-2.1,1.4-2.7,2.5-6.9,12.1-6.5,45.4-1.6,58.5,3.5,9.4,10.1,17.6,11.8,27.8.9,5.4.5,11.3-2.8,15.8-4.5,6.3-11.7,8.5-18.7,9.6-8.5,1.3-17.2,1-25.8,1-14.7,0-34.5,2-46.9-8.4-3.7-3.1-6.2-7.4-6.6-12.5-.9-10,11.1-19.4,16.6-26.5,3.3-4.3,6.6-9.3,8.7-14.4,11.9-28.1,21.2-105.1,18.4-136.6-.8-8.8-2.3-19.3-9.2-25.1-2-1.6-4.1-3-6.7-2.4-3.2.8-5.7,3.9-7.5,6.6-26,38.7,3.8,39.3,7,64.9,1,7.7-1.8,15.5-6.2,21.5-.4.5-.7,1-1.1,1.5-.4.5-.8,1-1.2,1.4-.4.5-.8.9-1.3,1.4-.4.4-.9.9-1.3,1.3-.5.4-.9.8-1.4,1.2-.5.4-1,.8-1.4,1.2-.5.4-1,.7-1.5,1.1-.5.3-1,.7-1.5,1-.5.3-1.1.6-1.6.9-.5.3-1.1.6-1.6.8-.5.3-1.1.5-1.7.7-.6.2-1.1.5-1.7.7-.6.2-1.1.4-1.7.6-.6.2-1.2.3-1.7.5-.6.1-1.2.3-1.8.4-.6.1-1.2.2-1.8.3-10.3,1.4-20.2-1.5-28.4-8.4-12.1-10.1-19.4-26.2-21.1-42.4-2.2-21.1,5-43,17.5-59.4,20.5-26.9,50.4-35,81.3-38.6Z"/>
  <path class="st4" d="M967.4,299.3c6.1-32.9-8.2-25.6-15.8-46.1-1.1-2.8-.8-5.9.4-8.6,4.6-9.9,20.2-15.7,29.5-18.6,11.4-3.6,20.7-5.5,31.6.8,2.9,5,3.9,9.2,4.6,14.9-4.7,35-28.7,142.8-9.7,170.9,3,4.4,7.3,7.9,9,13.1.1.4.3.9.5,1.3,0,.3.2.6.3.9-1.1,8.3-3.6,14.7-9.7,20.3-8.6,8-22.5,11.6-33.8,10.5-7.9-.7-15.5-3.9-20.6-10.5-13.9-17.9-.2-47.4,4.2-66.8,2.9-12.8,5.1-26.3,6.1-39.5v-1c1.8-13.7,2.7-27.7,3.3-41.6Z"/>
  <path class="st1" d="M906.7,434.4c-1,4-2.1,7.6-4.4,10.9-5.3,7.6-14.8,11-23.3,12-10.8,1.3-25.3.4-33.9-7.5-2.5-2.3-5.2-6.3-5-10,.6-9.2,7.2-22.9,10-32.2,6.7-22.3,10.1-47.7,9.8-71.2-.2-14.9-7.1-19.7-7.6-29.6-.3-5.7,2.1-10.6,5.7-14.6,7.7-8.5,20.3-14.7,31.6-14.4,4.1.1,8.3,1.4,11.1,4.8,4.6,5.4,4.4,13,4.1,19.8.6-1.1,1.1-2.3,1.7-3.4,4.8-8.7,14.2-17.3,23.4-19.7,6.1-1.6,13.2-.8,18.5,3,5.2,3.7,8.4,11.2,9.5,17.5-.2,11.8,1.2,26-4.2,36.7-4.5,6.6-11.6,14.8-19.5,16.5-16,3.5-16.1-24.4-21.1-27.7-.9,0-1.8.1-2.6.4-4.2,1.5-6.6,5.9-8.5,9.8-7.2,14.7-8.2,56.1-4.6,72.6,1.9,8.9,6.5,16.6,9,25.2,0,.3.2.6.3.9Z"/>
  <path class="st0" d="M961.4,890.1c-2.8-19.4-2.6-45.3-18.6-58.3-8.5-6.9-28.5-11.3-30.3-13.2,2.8-2.5,9.3-3.3,12.9-4.1,29-6.9,30.7-27.4,33.4-54.5.9-9.2.7-19,2.4-28l.3,1.1c5.4,23.4,1.2,59.8,22.5,74.3,9.3,6.3,20.2,7.9,30.8,9.9-16.5,6-33.9,9.2-42.5,27.6-6.9,14.9-6.4,33.7-8.8,49.9l-.5.5-1-.4-.7-4.8Z"/>
  <path class="st0" d="M823.3,105l.3,1.1c3.9,17.9,1.3,49.3,17.1,60.3,8.1,5.7,17.8,6.7,26.8,9.6-11.8,2.6-25.7,4.3-33,15.9-.7,1.2-.7,1.2-1.2,2.2-8.5,12.9-4.5,33.6-8.7,48.2l-1.1.6c-4.7-16.3-.9-37.3-12.3-51-.2-.2-.4-.4-.6-.6l-.6-.7c-7.9-8.8-17.7-8.5-26.6-14.6v-.9c13-5,25.6-5.3,32.2-20.7,6.1-14.1,6.3-34,7.7-49.4Z"/>
</svg>